<svg xmlns="http://www.w3.org/2000/svg" viewBox="0 0 1600 1100" width="1600" height="1100">
<circle cx="518.1" cy="165.9" r="1.4" fill="#fff" opacity="0.24"/>
<circle cx="857.4" cy="402.3" r="0.7" fill="#fff" opacity="0.36"/>
<circle cx="60.0" cy="477.0" r="0.7" fill="#fff" opacity="0.25"/>
<circle cx="679.2" cy="909.5" r="0.7" fill="#fff" opacity="0.28"/>
<circle cx="1003.9" cy="1042.5" r="1.3" fill="#fff" opacity="0.33"/>
<circle cx="1562.0" cy="51.2" r="1.6" fill="#fff" opacity="0.3"/>
<circle cx="230.8" cy="129.6" r="1.0" fill="#fff" opacity="0.45"/>
<circle cx="289.2" cy="639.8" r="1.4" fill="#fff" opacity="0.32"/>
<circle cx="876.4" cy="69.1" r="0.7" fill="#fff" opacity="0.28"/>
<circle cx="1088.6" cy="470.4" r="1.0" fill="#fff" opacity="0.38"/>
<circle cx="725.1" cy="329.7" r="1.6" fill="#fff" opacity="0.42"/>
<circle cx="390.6" cy="631.9" r="1.2" fill="#fff" opacity="0.47"/>
<circle cx="1167.1" cy="316.7" r="1.8" fill="#fff" opacity="0.25"/>
<circle cx="669.0" cy="832.9" r="0.8" fill="#fff" opacity="0.36"/>
<circle cx="62.7" cy="735.0" r="1.5" fill="#fff" opacity="0.38"/>
<circle cx="1400.8" cy="345.1" r="1.4" fill="#fff" opacity="0.39"/>
<circle cx="927.8" cy="501.8" r="1.6" fill="#fff" opacity="0.48"/>
<circle cx="758.6" cy="730.6" r="0.7" fill="#fff" opacity="0.42"/>
<circle cx="1035.4" cy="1092.4" r="1.6" fill="#fff" opacity="0.3"/>
<circle cx="617.3" cy="735.5" r="0.6" fill="#fff" opacity="0.35"/>
<circle cx="268.9" cy="128.8" r="0.7" fill="#fff" opacity="0.44"/>
<circle cx="206.9" cy="272.4" r="1.1" fill="#fff" opacity="0.46"/>
<circle cx="128.9" cy="494.1" r="1.3" fill="#fff" opacity="0.47"/>
<circle cx="1310.8" cy="950.4" r="0.9" fill="#fff" opacity="0.34"/>
<circle cx="574.0" cy="972.6" r="1.7" fill="#fff" opacity="0.26"/>
<circle cx="281.9" cy="255.2" r="0.9" fill="#fff" opacity="0.36"/>
<circle cx="942.6" cy="289.0" r="0.6" fill="#fff" opacity="0.34"/>
<circle cx="590.8" cy="623.0" r="1.7" fill="#fff" opacity="0.41"/>
<circle cx="824.8" cy="679.4" r="1.4" fill="#fff" opacity="0.24"/>
<circle cx="1439.3" cy="858.0" r="1.6" fill="#fff" opacity="0.44"/>
<circle cx="627.8" cy="438.9" r="0.7" fill="#fff" opacity="0.4"/>
<circle cx="99.6" cy="74.1" r="0.9" fill="#fff" opacity="0.27"/>
<circle cx="544.1" cy="57.8" r="0.6" fill="#fff" opacity="0.26"/>
<circle cx="162.3" cy="400.0" r="0.6" fill="#fff" opacity="0.46"/>
<circle cx="982.5" cy="163.4" r="0.9" fill="#fff" opacity="0.32"/>
<circle cx="582.7" cy="135.1" r="1.6" fill="#fff" opacity="0.5"/>
<circle cx="745.6" cy="532.2" r="0.7" fill="#fff" opacity="0.25"/>
<circle cx="548.2" cy="291.2" r="1.6" fill="#fff" opacity="0.27"/>
<circle cx="37.0" cy="1046.1" r="1.2" fill="#fff" opacity="0.26"/>
<circle cx="869.1" cy="29.7" r="1.2" fill="#fff" opacity="0.49"/>
<circle cx="1381.3" cy="765.8" r="0.9" fill="#fff" opacity="0.32"/>
<circle cx="267.3" cy="849.1" r="1.2" fill="#fff" opacity="0.44"/>
<circle cx="527.5" cy="245.3" r="1.6" fill="#fff" opacity="0.5"/>
<circle cx="1364.2" cy="886.7" r="1.6" fill="#fff" opacity="0.43"/>
<circle cx="362.8" cy="569.4" r="1.0" fill="#fff" opacity="0.23"/>
<circle cx="44.7" cy="307.4" r="0.9" fill="#fff" opacity="0.41"/>
<circle cx="1530.4" cy="492.0" r="1.7" fill="#fff" opacity="0.5"/>
<circle cx="1528.0" cy="401.1" r="0.9" fill="#fff" opacity="0.28"/>
<circle cx="314.7" cy="224.8" r="1.3" fill="#fff" opacity="0.47"/>
<circle cx="1344.7" cy="527.4" r="1.4" fill="#fff" opacity="0.44"/>
<circle cx="135.6" cy="726.6" r="1.7" fill="#fff" opacity="0.44"/>
<circle cx="1200.2" cy="525.8" r="0.8" fill="#fff" opacity="0.44"/>
<circle cx="532.0" cy="880.9" r="1.8" fill="#fff" opacity="0.33"/>
<circle cx="642.2" cy="1041.5" r="1.5" fill="#fff" opacity="0.27"/>
<circle cx="203.3" cy="166.3" r="1.7" fill="#fff" opacity="0.45"/>
<circle cx="233.9" cy="909.2" r="1.8" fill="#fff" opacity="0.4"/>
<circle cx="560.7" cy="603.5" r="0.8" fill="#fff" opacity="0.22"/>
<circle cx="1553.4" cy="714.6" r="1.2" fill="#fff" opacity="0.48"/>
<circle cx="694.1" cy="958.9" r="1.6" fill="#fff" opacity="0.28"/>
<circle cx="402.9" cy="322.3" r="0.9" fill="#fff" opacity="0.38"/>
<circle cx="415.0" cy="460.9" r="0.8" fill="#fff" opacity="0.47"/>
<circle cx="566.1" cy="504.0" r="1.3" fill="#fff" opacity="0.47"/>
<circle cx="673.0" cy="1009.5" r="1.2" fill="#fff" opacity="0.37"/>
<circle cx="837.6" cy="20.6" r="1.1" fill="#fff" opacity="0.27"/>
<circle cx="6.3" cy="879.1" r="0.8" fill="#fff" opacity="0.35"/>
<circle cx="1160.3" cy="612.1" r="1.0" fill="#fff" opacity="0.37"/>
<circle cx="888.7" cy="862.7" r="0.7" fill="#fff" opacity="0.38"/>
<circle cx="397.6" cy="304.6" r="1.5" fill="#fff" opacity="0.36"/>
<circle cx="898.8" cy="836.0" r="1.7" fill="#fff" opacity="0.34"/>
<circle cx="980.0" cy="556.1" r="1.2" fill="#fff" opacity="0.41"/>
<circle cx="723.8" cy="586.6" r="1.2" fill="#fff" opacity="0.48"/>
<circle cx="1118.7" cy="964.2" r="1.7" fill="#fff" opacity="0.29"/>
<circle cx="895.2" cy="1037.6" r="1.6" fill="#fff" opacity="0.26"/>
<circle cx="194.6" cy="486.3" r="0.7" fill="#fff" opacity="0.29"/>
<circle cx="117.0" cy="736.4" r="1.5" fill="#fff" opacity="0.47"/>
<circle cx="247.1" cy="787.7" r="1.4" fill="#fff" opacity="0.26"/>
<circle cx="1412.5" cy="1064.3" r="0.9" fill="#fff" opacity="0.49"/>
<circle cx="637.2" cy="536.0" r="1.8" fill="#fff" opacity="0.45"/>
<circle cx="258.3" cy="474.7" r="1.2" fill="#fff" opacity="0.31"/>
<circle cx="313.2" cy="350.4" r="1.5" fill="#fff" opacity="0.23"/>
<circle cx="886.5" cy="484.5" r="0.6" fill="#fff" opacity="0.31"/>
<circle cx="998.3" cy="563.5" r="0.7" fill="#fff" opacity="0.5"/>
<circle cx="1261.4" cy="1068.9" r="0.7" fill="#fff" opacity="0.29"/>
<circle cx="63.3" cy="856.9" r="0.9" fill="#fff" opacity="0.26"/>
<circle cx="675.6" cy="1002.6" r="1.6" fill="#fff" opacity="0.29"/>
<circle cx="239.0" cy="1011.1" r="1.3" fill="#fff" opacity="0.42"/>
<circle cx="143.1" cy="63.3" r="1.4" fill="#fff" opacity="0.34"/>
<circle cx="115.9" cy="1032.2" r="1.4" fill="#fff" opacity="0.44"/>
<circle cx="134.0" cy="941.9" r="0.7" fill="#fff" opacity="0.46"/>
<circle cx="726.0" cy="373.1" r="1.3" fill="#fff" opacity="0.48"/>
<circle cx="428.6" cy="142.1" r="1.2" fill="#fff" opacity="0.29"/>
<circle cx="175.1" cy="177.6" r="0.7" fill="#fff" opacity="0.28"/>
<circle cx="499.2" cy="335.5" r="1.5" fill="#fff" opacity="0.3"/>
<circle cx="800.1" cy="195.7" r="1.0" fill="#fff" opacity="0.23"/>
<circle cx="400.7" cy="16.9" r="1.5" fill="#fff" opacity="0.37"/>
<circle cx="303.1" cy="522.2" r="1.7" fill="#fff" opacity="0.25"/>
<circle cx="1310.3" cy="475.4" r="1.2" fill="#fff" opacity="0.45"/>
<circle cx="628.9" cy="557.4" r="1.4" fill="#fff" opacity="0.5"/>
<circle cx="548.3" cy="915.5" r="1.4" fill="#fff" opacity="0.4"/>
<circle cx="647.5" cy="382.3" r="0.7" fill="#fff" opacity="0.26"/>
<circle cx="113.2" cy="815.0" r="0.9" fill="#fff" opacity="0.27"/>
<circle cx="135.2" cy="925.4" r="1.6" fill="#fff" opacity="0.41"/>
<circle cx="451.1" cy="266.4" r="1.0" fill="#fff" opacity="0.35"/>
<circle cx="252.1" cy="490.4" r="0.9" fill="#fff" opacity="0.49"/>
<circle cx="1556.2" cy="601.8" r="0.9" fill="#fff" opacity="0.49"/>
<circle cx="495.3" cy="392.2" r="0.6" fill="#fff" opacity="0.33"/>
<circle cx="759.4" cy="553.0" r="0.8" fill="#fff" opacity="0.36"/>
<circle cx="7.9" cy="290.6" r="0.7" fill="#fff" opacity="0.33"/>
<circle cx="66.7" cy="24.7" r="1.0" fill="#fff" opacity="0.29"/>
<circle cx="936.9" cy="582.1" r="1.5" fill="#fff" opacity="0.4"/>
<circle cx="1145.6" cy="967.0" r="1.1" fill="#fff" opacity="0.31"/>
<circle cx="1575.6" cy="164.4" r="1.5" fill="#fff" opacity="0.4"/>
<circle cx="70.1" cy="918.8" r="1.7" fill="#fff" opacity="0.4"/>
<circle cx="1174.2" cy="893.4" r="0.8" fill="#fff" opacity="0.37"/>
<circle cx="807.0" cy="918.4" r="1.6" fill="#fff" opacity="0.45"/>
<circle cx="934.5" cy="982.1" r="1.4" fill="#fff" opacity="0.41"/>
<circle cx="367.9" cy="34.3" r="0.8" fill="#fff" opacity="0.32"/>
<circle cx="167.9" cy="919.4" r="1.3" fill="#fff" opacity="0.4"/>
<circle cx="1002.0" cy="748.7" r="1.2" fill="#fff" opacity="0.22"/>
<circle cx="1276.3" cy="823.1" r="1.2" fill="#fff" opacity="0.37"/>
<circle cx="1054.9" cy="72.7" r="1.5" fill="#fff" opacity="0.29"/>
<circle cx="119.1" cy="292.1" r="1.5" fill="#fff" opacity="0.28"/>
<circle cx="1183.7" cy="1073.3" r="1.2" fill="#fff" opacity="0.33"/>
<circle cx="766.4" cy="752.1" r="1.5" fill="#fff" opacity="0.39"/>
<circle cx="1028.4" cy="85.2" r="0.8" fill="#fff" opacity="0.29"/>
<circle cx="1189.1" cy="334.9" r="1.3" fill="#fff" opacity="0.22"/>
<circle cx="97.1" cy="295.7" r="1.4" fill="#fff" opacity="0.41"/>
<circle cx="1081.1" cy="319.9" r="1.2" fill="#fff" opacity="0.35"/>
<circle cx="746.1" cy="130.4" r="1.7" fill="#fff" opacity="0.28"/>
<circle cx="1565.0" cy="1029.9" r="0.6" fill="#fff" opacity="0.35"/>
<circle cx="1311.8" cy="1064.9" r="1.1" fill="#fff" opacity="0.3"/>
<circle cx="335.7" cy="1040.1" r="0.9" fill="#fff" opacity="0.38"/>
<circle cx="226.8" cy="576.5" r="1.7" fill="#fff" opacity="0.26"/>
<circle cx="1312.3" cy="559.6" r="1.7" fill="#fff" opacity="0.42"/>
<circle cx="370.2" cy="987.5" r="1.2" fill="#fff" opacity="0.23"/>
<circle cx="5.7" cy="540.9" r="1.1" fill="#fff" opacity="0.3"/>
<circle cx="225.1" cy="378.4" r="1.0" fill="#fff" opacity="0.46"/>
<circle cx="2.8" cy="825.8" r="1.6" fill="#fff" opacity="0.25"/>
<circle cx="1482.2" cy="784.3" r="1.7" fill="#fff" opacity="0.3"/>
<circle cx="595.6" cy="432.2" r="1.8" fill="#fff" opacity="0.38"/>
<circle cx="577.1" cy="470.9" r="0.9" fill="#fff" opacity="0.23"/>
<circle cx="162.7" cy="918.1" r="0.9" fill="#fff" opacity="0.48"/>
<circle cx="398.9" cy="292.3" r="1.2" fill="#fff" opacity="0.27"/>
<circle cx="597.4" cy="1051.8" r="1.7" fill="#fff" opacity="0.45"/>
<circle cx="1009.4" cy="1004.8" r="1.7" fill="#fff" opacity="0.37"/>
<circle cx="1151.3" cy="54.4" r="1.5" fill="#fff" opacity="0.35"/>
<circle cx="1204.3" cy="708.9" r="0.9" fill="#fff" opacity="0.23"/>
<circle cx="1482.8" cy="140.0" r="1.2" fill="#fff" opacity="0.32"/>
<circle cx="476.4" cy="812.9" r="1.8" fill="#fff" opacity="0.29"/>
<circle cx="1049.6" cy="330.9" r="1.3" fill="#fff" opacity="0.33"/>
</svg>